<svg width="46" height="47" viewBox="0 0 46 47" fill="none" xmlns="http://www.w3.org/2000/svg">
<g clip-path="url(#clip0_66_135)">
<path d="M45.1586 46.1109C44.597 46.6725 43.861 46.9523 43.125 46.9523C42.389 46.9523 41.653 46.6725 41.0914 46.1109L30.5306 35.5501C27.3317 37.9038 23.3948 39.2876 19.1667 39.2876C8.59817 39.2857 0 30.6875 0 20.119C0 9.5505 8.59817 0.952333 19.1667 0.952333C21.9171 0.952333 24.5717 1.5235 27.0595 2.64858C28.5066 3.30217 29.1487 5.00608 28.4932 6.45317C27.8415 7.90025 26.1357 8.54042 24.6905 7.88875C22.9521 7.101 21.0929 6.70233 19.1667 6.70233C11.7702 6.70233 5.75 12.7207 5.75 20.119C5.75 20.6135 5.78067 21.0984 5.83242 21.5795L10.1852 16.3547C11.1799 15.1644 12.6308 14.4437 14.1757 14.3748C15.7358 14.2942 17.2308 14.8923 18.3233 15.9847L21.8768 19.7146L37.1086 1.95475C38.1397 0.749166 39.9529 0.609249 41.1623 1.64425C42.3679 2.67925 42.5059 4.49242 41.4728 5.698L26.0686 23.661C25.0642 24.8244 23.6172 25.5202 22.0896 25.5758C20.5735 25.6332 19.067 25.0448 17.986 23.9657L14.3807 20.1822L8.14967 27.7588C10.5762 31.2453 14.605 33.5357 19.1647 33.5357C25.6776 33.5357 31.234 28.8897 32.3744 22.4899C32.6543 20.9259 34.1646 19.8909 35.7075 20.165C37.2715 20.4429 38.3122 21.936 38.0343 23.5C37.5034 26.4785 36.2959 29.1848 34.5978 31.4887L45.1567 42.0476C46.2798 43.1688 46.2798 44.9916 45.1567 46.1128L45.1586 46.1109Z" fill="white"/>
</g>
<defs>
<clipPath id="clip0_66_135">
<rect width="46" height="46" fill="white" transform="translate(0 0.952393)"/>
</clipPath>
</defs>
</svg>
