<svg width="46" height="47" viewBox="0 0 46 47" fill="none" xmlns="http://www.w3.org/2000/svg">
<g clip-path="url(#clip0_66_139)">
<path d="M23.8855 12.4528C25.4725 12.4528 26.7605 13.7408 26.7605 15.3278C26.7605 16.9148 25.4725 18.2028 23.8855 18.2028C22.2985 18.2028 21.0105 16.9148 21.0105 15.3278C21.0105 13.7408 22.2985 12.4528 23.8855 12.4528ZM10.4688 6.70283C12.0558 6.70283 13.3438 5.41483 13.3438 3.82783C13.3438 2.24083 12.0558 0.952827 10.4688 0.952827C8.88183 0.952827 7.59383 2.24083 7.59383 3.82783C7.59383 5.41483 8.88183 6.70283 10.4688 6.70283ZM10.5436 17.5358C11.0822 17.9843 11.7338 18.2028 12.3817 18.2028C13.2058 18.2028 14.0223 17.8502 14.5916 17.1678L24.1749 5.66783C25.1908 4.44691 25.0259 2.63374 23.8069 1.61791C22.5841 0.600161 20.7728 0.766911 19.757 1.98591L10.1737 13.4859C9.15783 14.7068 9.32458 16.52 10.5436 17.5358ZM44.1102 28.6812L34.1531 40.072C30.3313 44.4439 24.8093 46.9509 19.0018 46.9509H8.625C3.86975 46.9509 0 43.0812 0 38.3259V30.6592C0 25.904 3.86975 22.0342 8.625 22.0342H23.6862C25.4917 22.0342 27.14 22.7242 28.382 23.8532L33.0548 18.7165C34.3927 17.2464 36.225 16.3839 38.2107 16.2919C40.1963 16.1961 42.0996 16.8861 43.5697 18.2239C46.5712 20.959 46.8127 25.651 44.1102 28.6793V28.6812ZM39.698 22.4751C39.3626 22.1703 38.9294 22.0189 38.479 22.0362C38.0267 22.0572 37.6108 22.2527 37.306 22.5882L30.6015 29.9558C30.1837 32.9918 27.7744 35.4816 24.6733 35.9262L14.7813 37.3388C13.2135 37.5573 11.753 36.4706 11.5288 34.8989C11.3045 33.3272 12.397 31.8706 13.9687 31.6463L23.8606 30.2337C24.4624 30.1475 24.9167 29.6242 24.9167 29.0147C24.9167 28.3362 24.3647 27.7842 23.6862 27.7842H8.625C7.03992 27.7842 5.75 29.0742 5.75 30.6592V38.3259C5.75 39.911 7.03992 41.2009 8.625 41.2009H19.0018C23.1495 41.2009 27.094 39.4088 29.8233 36.2885L39.8015 24.8747C40.4359 24.1637 40.3803 23.098 39.698 22.4751Z" fill="white"/>
</g>
<defs>
<clipPath id="clip0_66_139">
<rect width="46" height="46" fill="white" transform="translate(0 0.952393)"/>
</clipPath>
</defs>
</svg>
