<svg width="47" height="48" viewBox="0 0 47 48" fill="none" xmlns="http://www.w3.org/2000/svg">
<g clip-path="url(#clip0_66_133)">
<path d="M18.6042 0.952393H6.85417C5.03633 0.952393 3.29294 1.67453 2.00754 2.95993C0.722133 4.24534 0 5.98872 0 7.80656L0 20.5357H9.79167V22.4941H5.875V28.3691H19.5833V22.4941H15.6667V20.5357H25.4583V7.80656C25.4583 5.98872 24.7362 4.24534 23.4508 2.95993C22.1654 1.67453 20.422 0.952393 18.6042 0.952393ZM19.5833 14.6607H5.875V7.80656C5.875 7.54687 5.97816 7.29781 6.16179 7.11418C6.34542 6.93055 6.59448 6.82739 6.85417 6.82739H18.6042C18.8639 6.82739 19.1129 6.93055 19.2965 7.11418C19.4802 7.29781 19.5833 7.54687 19.5833 7.80656V14.6607ZM34.2708 12.7024H29.375V6.82739H34.2708C36.0887 6.82739 37.8321 7.54953 39.1175 8.83493C40.4029 10.1203 41.125 11.8637 41.125 13.6816V18.5774H35.25V13.6816C35.25 13.4219 35.1468 13.1728 34.9632 12.9892C34.7796 12.8056 34.5305 12.7024 34.2708 12.7024ZM16.6458 38.1607H25.4583V44.0357H16.6458C14.828 44.0357 13.0846 43.3136 11.7992 42.0282C10.5138 40.7428 9.79167 38.9994 9.79167 37.1816V32.2857H15.6667V37.1816C15.6667 37.4412 15.7698 37.6903 15.9535 37.8739C16.1371 38.0576 16.3861 38.1607 16.6458 38.1607ZM41.125 22.4941H35.25C33.6919 22.4941 32.1975 23.113 31.0957 24.2148C29.994 25.3166 29.375 26.8109 29.375 28.3691V47.9524H47V28.3691C47 26.8109 46.381 25.3166 45.2793 24.2148C44.1775 23.113 42.6831 22.4941 41.125 22.4941ZM38.1875 44.0357C37.6065 44.0357 37.0386 43.8634 36.5555 43.5407C36.0724 43.2179 35.6959 42.7591 35.4736 42.2224C35.2513 41.6856 35.1931 41.095 35.3064 40.5252C35.4198 39.9553 35.6996 39.4319 36.1104 39.0211C36.5212 38.6103 37.0446 38.3305 37.6144 38.2172C38.1842 38.1038 38.7749 38.162 39.3116 38.3843C39.8484 38.6067 40.3072 38.9832 40.6299 39.4662C40.9527 39.9493 41.125 40.5172 41.125 41.0982C41.125 41.8773 40.8155 42.6245 40.2646 43.1754C39.7137 43.7262 38.9666 44.0357 38.1875 44.0357Z" fill="white"/>
</g>
<defs>
<clipPath id="clip0_66_133">
<rect width="47" height="47" fill="white" transform="translate(0 0.952393)"/>
</clipPath>
</defs>
</svg>
