<svg width="42" height="47" viewBox="0 0 42 47" fill="none" xmlns="http://www.w3.org/2000/svg">
<path d="M10.4163 22.2118C10.4163 21.4493 10.7192 20.7181 11.2584 20.1789C11.7976 19.6397 12.5288 19.3368 13.2913 19.3368H19.0413C19.8038 19.3368 20.5351 19.6397 21.0743 20.1789C21.6134 20.7181 21.9163 21.4493 21.9163 22.2118C21.9163 22.9743 21.6134 23.7056 21.0743 24.2448C20.5351 24.7839 19.8038 25.0868 19.0413 25.0868H13.2913C12.5288 25.0868 11.7976 24.7839 11.2584 24.2448C10.7192 23.7056 10.4163 22.9743 10.4163 22.2118ZM13.2913 15.5035H26.708C27.4705 15.5035 28.2018 15.2006 28.7409 14.6614C29.2801 14.1223 29.583 13.391 29.583 12.6285C29.583 11.866 29.2801 11.1347 28.7409 10.5956C28.2018 10.0564 27.4705 9.7535 26.708 9.7535H13.2913C12.5288 9.7535 11.7976 10.0564 11.2584 10.5956C10.7192 11.1347 10.4163 11.866 10.4163 12.6285C10.4163 13.391 10.7192 14.1223 11.2584 14.6614C11.7976 15.2006 12.5288 15.5035 13.2913 15.5035ZM37.2497 38.4537V44.0925C37.2496 44.5026 37.1279 44.9035 36.9001 45.2445C36.6722 45.5854 36.3483 45.8512 35.9694 46.0081C35.5905 46.1651 35.1736 46.2061 34.7714 46.1262C34.3691 46.0462 33.9996 45.8487 33.7096 45.5587L31.4997 43.3488L29.2898 45.5587C28.9997 45.8487 28.6302 46.0462 28.228 46.1262C27.8258 46.2061 27.4088 46.1651 27.0299 46.0081C26.651 45.8512 26.3272 45.5854 26.0993 45.2445C25.8714 44.9035 25.7497 44.5026 25.7497 44.0925V38.4537C24.0152 37.1484 22.7766 35.2918 22.2372 33.1891C21.6979 31.0864 21.8901 28.8628 22.7821 26.8839C23.6741 24.9049 25.213 23.2883 27.1456 22.2999C29.0782 21.3115 31.2897 21.0101 33.4163 21.4452V10.7118C33.4163 9.441 32.9115 8.22222 32.0129 7.32361C31.1143 6.425 29.8955 5.92017 28.6247 5.92017L11.3881 5.993C10.7577 5.99123 10.1332 6.11387 9.55028 6.35388C8.96738 6.5939 8.43757 6.94657 7.9912 7.39169C7.54483 7.83682 7.19067 8.36564 6.94903 8.94787C6.70739 9.5301 6.58301 10.1543 6.58301 10.7847V33.7118C6.58301 34.9827 7.08784 36.2014 7.98646 37.1C8.88507 37.9987 10.1038 38.5035 11.3747 38.5035H19.0413C19.8038 38.5035 20.5351 38.8064 21.0743 39.3456C21.6134 39.8847 21.9163 40.616 21.9163 41.3785C21.9163 42.141 21.6134 42.8723 21.0743 43.4114C20.5351 43.9506 19.8038 44.2535 19.0413 44.2535H11.3747C8.57994 44.2499 5.90069 43.1382 3.92451 41.162C1.94833 39.1858 0.836558 36.5066 0.833008 33.7118V10.7847C0.836558 7.98993 1.94833 5.31068 3.92451 3.3345C5.90069 1.35833 8.57994 0.246549 11.3747 0.242999L28.6113 0.170166C31.408 0.171178 34.0901 1.28171 36.069 3.25805C38.0478 5.23439 39.1618 7.91509 39.1663 10.7118V25.1462C39.9212 26.1432 40.4707 27.28 40.7831 28.4908C41.0956 29.7016 41.1646 30.9624 40.9864 32.2001C40.8081 33.4378 40.386 34.6279 39.7446 35.7013C39.1032 36.7747 38.2552 37.7103 37.2497 38.4537ZM27.6663 30.8368C27.6663 31.595 27.8912 32.3361 28.3124 32.9665C28.7336 33.5969 29.3323 34.0882 30.0327 34.3784C30.7332 34.6685 31.5039 34.7444 32.2475 34.5965C32.9911 34.4486 33.6742 34.0835 34.2103 33.5474C34.7464 33.0113 35.1114 32.3283 35.2594 31.5847C35.4073 30.8411 35.3314 30.0703 35.0412 29.3699C34.7511 28.6694 34.2598 28.0707 33.6294 27.6495C32.999 27.2283 32.2578 27.0035 31.4997 27.0035C30.483 27.0035 29.508 27.4074 28.7891 28.1263C28.0702 28.8451 27.6663 29.8202 27.6663 30.8368Z" fill="white"/>
</svg>
