<svg width="48" height="49" viewBox="0 0 48 49" fill="none" xmlns="http://www.w3.org/2000/svg">
<g clip-path="url(#clip0_66_137)">
<path d="M48 38.9535V11.9535C48 10.0969 47.2625 8.31646 45.9497 7.0037C44.637 5.69095 42.8565 4.95345 41 4.95345H37.316C36.6072 3.454 35.3879 2.25583 33.8762 1.57348C32.3646 0.891127 30.6594 0.769171 29.066 1.22945L26.076 2.09345C25.3347 2.30714 24.6334 2.64089 24 3.08145C23.3703 2.64183 22.6722 2.30935 21.934 2.09745L18.924 1.22545C17.3315 0.76854 15.6285 0.892621 14.1191 1.57553C12.6096 2.25843 11.3921 3.45569 10.684 4.95345H7C5.14348 4.95345 3.36301 5.69095 2.05025 7.0037C0.737498 8.31646 0 10.0969 0 11.9535L0 38.9535H21V42.9535H14V48.9535H34V42.9535H27V38.9535H48ZM27 8.82545C26.9996 8.60624 27.0712 8.39296 27.2038 8.21842C27.3364 8.04389 27.5227 7.91776 27.734 7.85945L30.724 6.99545C30.8723 6.95235 31.0286 6.94419 31.1805 6.97161C31.3325 6.99902 31.4761 7.06126 31.6 7.15345C31.7253 7.2456 31.8268 7.36618 31.8964 7.50527C31.9659 7.64435 32.0014 7.79796 32 7.95345V16.8475L27 18.2815V8.82545ZM16 7.95345C15.9986 7.79796 16.0341 7.64435 16.1036 7.50527C16.1732 7.36618 16.2747 7.2456 16.4 7.15345C16.5207 7.05813 16.6626 6.99328 16.8137 6.96438C16.9648 6.93549 17.1206 6.9434 17.268 6.98745L20.278 7.85945C20.4868 7.9194 20.6704 8.04571 20.801 8.21928C20.9316 8.39284 21.0022 8.60422 21.002 8.82145V18.2815L16 16.8475V7.95345ZM6 11.9535C6 11.6882 6.10536 11.4339 6.29289 11.2463C6.48043 11.0588 6.73478 10.9535 7 10.9535H10V21.3675L24 25.3835L38 21.3675V10.9535H41C41.2652 10.9535 41.5196 11.0588 41.7071 11.2463C41.8946 11.4339 42 11.6882 42 11.9535V32.9535H6V11.9535Z" fill="white"/>
</g>
<defs>
<clipPath id="clip0_66_137">
<rect width="48" height="48" fill="white" transform="translate(0 0.952393)"/>
</clipPath>
</defs>
</svg>
