<svg width="46" height="47" viewBox="0 0 46 47" fill="none" xmlns="http://www.w3.org/2000/svg">
<g clip-path="url(#clip0_66_131)">
<path d="M22.0417 6.70239C22.0417 3.52648 24.6157 0.952393 27.7917 0.952393C30.9676 0.952393 33.5417 3.52648 33.5417 6.70239C33.5417 9.87831 30.9676 12.4524 27.7917 12.4524C24.6157 12.4524 22.0417 9.87831 22.0417 6.70239ZM46 34.4941C46 36.0811 44.7139 37.3691 43.125 37.3691H42.1667V44.0774C42.1667 45.6644 40.8806 46.9524 39.2917 46.9524C37.7027 46.9524 36.4167 45.6644 36.4167 44.0774V37.3691H9.58333V44.0774C9.58333 45.6644 8.29725 46.9524 6.70833 46.9524C5.11942 46.9524 3.83333 45.6644 3.83333 44.0774V37.3691H2.875C1.28608 37.3691 0 36.0811 0 34.4941C0 32.9071 1.28608 31.6191 2.875 31.6191H3.83333V25.7042C3.83333 24.4258 4.33167 23.2221 5.23633 22.3156L7.69158 19.8603C7.82767 17.8651 9.47025 16.2857 11.4981 16.2857C13.616 16.2857 15.3314 18.0011 15.3314 20.1191C15.3314 22.1469 13.7502 23.7914 11.7568 23.9256L9.58142 26.101V31.6191H19.1647V18.2848L10.2503 7.58406C9.2345 6.36314 9.39933 4.54998 10.6183 3.53414C11.8392 2.51639 13.6505 2.68314 14.6682 3.90214L23.3891 14.3671H32.1962L40.917 3.90214C41.9347 2.68314 43.746 2.51639 44.9669 3.53414C46.1859 4.54998 46.3507 6.36314 45.3349 7.58406L36.4186 18.2848V31.6191H43.1269C44.7158 31.6191 46 32.9071 46 34.4941ZM24.9167 31.6191H30.6667V20.1191H24.9167V31.6191Z" fill="white"/>
</g>
<defs>
<clipPath id="clip0_66_131">
<rect width="46" height="46" fill="white" transform="translate(0 0.952393)"/>
</clipPath>
</defs>
</svg>
