<svg width="44" height="45" viewBox="0 0 44 45" fill="none" xmlns="http://www.w3.org/2000/svg">
<g clip-path="url(#clip0_66_127)">
<path d="M26.5837 23.8692C26.5837 26.401 24.5322 28.4525 22.0004 28.4525C19.4686 28.4525 17.4171 26.401 17.4171 23.8692C17.4171 21.3373 19.4686 19.2858 22.0004 19.2858C24.5322 19.2858 26.5837 21.3373 26.5837 23.8692ZM42.8271 21.616C41.5804 20.7415 39.8662 21.0458 38.9972 22.2906L34.7696 28.3296C33.9134 29.5543 32.5091 30.284 31.0149 30.284H12.9859C11.4917 30.284 10.0874 29.5543 9.23124 28.3296L5.00358 22.2906C4.13274 21.0458 2.41858 20.7415 1.17374 21.616C-0.0710887 22.4868 -0.373589 24.201 0.497245 25.4458L4.72491 31.4848C6.60958 34.178 9.69874 35.7858 12.9859 35.7858H14.6671V42.2025C14.6671 43.7205 15.8972 44.9525 17.4171 44.9525C18.9369 44.9525 20.1671 43.7205 20.1671 42.2025V35.7858H23.8337V42.2025C23.8337 43.7205 25.0639 44.9525 26.5837 44.9525C28.1036 44.9525 29.3337 43.7205 29.3337 42.2025V35.7858H31.0149C34.3021 35.7858 37.3912 34.178 39.2759 31.4848L43.5036 25.4458C44.3744 24.201 44.0719 22.4868 42.8271 21.616ZM17.4171 11.9525H20.1671V13.3788C20.1671 14.5558 21.5054 15.1443 22.2882 14.312L26.2189 10.1356C26.7047 9.62048 26.7047 8.78448 26.2189 8.26748L22.2882 4.09115C21.5054 3.25882 20.1671 3.84915 20.1671 5.02432V6.45065H17.4171C15.8972 6.45065 14.6671 7.68265 14.6671 9.20065C14.6671 10.7186 15.8972 11.9525 17.4171 11.9525ZM5.50041 17.4525H7.33374C8.34575 17.4525 9.16708 16.6311 9.16708 15.6191V13.7858H3.66708V15.6191C3.66708 16.6311 4.48841 17.4525 5.50041 17.4525ZM2.75041 11.9525H10.0837C11.9171 11.0358 12.8337 9.12732 12.8337 7.36915C12.8337 5.40198 11.9501 3.57048 10.4082 2.34215C8.86641 1.11748 6.86441 0.671983 4.90824 1.12482C2.57074 1.66565 0.709911 3.52648 0.170911 5.86582C-0.349755 8.12448 0.917078 11.0358 2.75041 11.9525ZM28.4794 12.1926L29.5207 11.5913C29.4089 11.1165 29.3337 10.627 29.3337 10.1191C29.3337 9.61132 29.4089 9.11998 29.5207 8.64515L28.4794 8.04565C27.6012 7.54148 27.3006 6.41948 27.8066 5.54315C28.3107 4.66498 29.4291 4.36065 30.3109 4.87032L31.3522 5.46982C32.0691 4.79148 32.9454 4.29282 33.9152 4.00132V2.78582C33.9152 1.77198 34.7366 0.952483 35.7486 0.952483C36.7606 0.952483 37.5819 1.77198 37.5819 2.78582V4.00132C38.5517 4.29282 39.4281 4.79148 40.1449 5.46982L41.1862 4.86848C42.0626 4.36065 43.1846 4.66498 43.6906 5.53948C44.1966 6.41765 43.8959 7.53782 43.0177 8.04382L41.9782 8.64332C42.0901 9.11815 42.1652 9.60765 42.1652 10.1173C42.1652 10.627 42.0901 11.1165 41.9782 11.5913L43.0196 12.1908C43.8977 12.695 44.1984 13.817 43.6924 14.6933C43.3532 15.2818 42.7372 15.6118 42.1029 15.6118C41.7931 15.6118 41.4777 15.533 41.1881 15.3661L40.1467 14.7666C39.4299 15.445 38.5536 15.9437 37.5837 16.2352V17.4506C37.5837 18.4645 36.7624 19.284 35.7504 19.284C34.7384 19.284 33.9171 18.4645 33.9171 17.4506V16.2352C32.9472 15.9437 32.0709 15.445 31.3541 14.7666L30.3146 15.368C30.0249 15.5348 29.7096 15.6136 29.3997 15.6136C28.7654 15.6136 28.1494 15.2836 27.8102 14.697C27.3042 13.8188 27.6031 12.6986 28.4794 12.1926ZM33.0004 10.1191C33.0004 11.6353 34.2342 12.8691 35.7504 12.8691C37.2666 12.8691 38.5004 11.6353 38.5004 10.1191C38.5004 8.60298 37.2666 7.36915 35.7504 7.36915C34.2342 7.36915 33.0004 8.60298 33.0004 10.1191Z" fill="white"/>
</g>
<defs>
<clipPath id="clip0_66_127">
<rect width="44" height="44" fill="white" transform="translate(0 0.952393)"/>
</clipPath>
</defs>
</svg>
