<svg width="47" height="48" viewBox="0 0 47 48" fill="none" xmlns="http://www.w3.org/2000/svg">
<g clip-path="url(#clip0_66_125)">
<path d="M35.25 24.4524C28.7601 24.4524 23.5 29.7125 23.5 36.2024C23.5 42.6923 28.7601 47.9524 35.25 47.9524C41.7399 47.9524 47 42.6923 47 36.2024C47 29.7125 41.7399 24.4524 35.25 24.4524ZM42.4625 35.6384L37.1692 40.7575C36.284 41.6309 35.109 42.0715 33.932 42.0715C32.7551 42.0715 31.5762 41.6309 30.6753 40.7516L28.0238 38.1431C27.2502 37.3852 27.2404 36.1456 27.9963 35.374C28.7522 34.6005 29.9919 34.5887 30.7654 35.3466L33.417 37.9531C33.699 38.2312 34.1612 38.2254 34.4393 37.9492L39.7522 32.8106C40.5297 32.0644 41.7712 32.086 42.5213 32.8674C43.2694 33.6468 43.2439 34.8864 42.4645 35.6364L42.4625 35.6384ZM3.91667 16.6191C3.91667 13.3741 6.54671 10.7441 9.79167 10.7441C13.0366 10.7441 15.6667 13.3741 15.6667 16.6191C15.6667 19.864 13.0366 22.4941 9.79167 22.4941C6.54671 22.4941 3.91667 19.864 3.91667 16.6191ZM23.5 6.82739C23.5 3.58243 26.13 0.952393 29.375 0.952393C32.62 0.952393 35.25 3.58243 35.25 6.82739C35.25 10.0724 32.62 12.7024 29.375 12.7024C26.13 12.7024 23.5 10.0724 23.5 6.82739ZM19.5833 35.2232C19.5833 36.8447 18.2673 38.1607 16.6458 38.1607C15.0243 38.1607 13.7083 36.8447 13.7083 35.2232C13.7083 34.4066 13.5184 30.3274 9.79167 30.3274C6.06496 30.3274 5.875 34.4066 5.875 35.2232C5.875 36.8447 4.559 38.1607 2.9375 38.1607C1.316 38.1607 0 36.8447 0 35.2232C0 30.0356 3.06283 24.4524 9.79167 24.4524C16.5205 24.4524 19.5833 30.0356 19.5833 35.2232ZM22.7147 26.4107C22.5267 26.4107 22.3387 26.3931 22.1468 26.3559C20.5547 26.0445 19.5168 24.5014 19.8281 22.9092C20.823 17.8215 24.4811 14.6607 29.375 14.6607C32.1421 14.6607 34.5372 15.6614 36.2997 17.5551C37.4042 18.7419 37.3395 20.6004 36.1528 21.7068C34.968 22.8113 33.1056 22.7486 32.0011 21.558C31.3608 20.8706 30.501 20.5357 29.375 20.5357C27.3207 20.5357 26.0478 21.7146 25.5915 24.0372C25.3173 25.4394 24.0875 26.4107 22.7127 26.4107H22.7147Z" fill="white"/>
</g>
<defs>
<clipPath id="clip0_66_125">
<rect width="47" height="47" fill="white" transform="translate(0 0.952393)"/>
</clipPath>
</defs>
</svg>
