<svg width="599" height="508" viewBox="0 0 599 508" fill="none" xmlns="http://www.w3.org/2000/svg">
<path d="M562.503 263.19L564.385 265.454L560.779 266.424L557.799 267.879L550.43 268.85L543.844 270.467L540.865 274.024L543.217 277.582L544.942 281.786L542.433 285.343L543.374 288.577L542.276 291.488L535.69 291.165L539.61 296.663L535.69 298.927L533.966 303.778L535.377 308.791L533.182 311.054L530.516 310.246L525.498 311.378L525.185 313.642H520.01L517.188 318.493L518.129 325.446L509.818 329.004L504.958 328.195L503.86 329.974L499.626 329.004L492.727 330.459L480.653 326.255L485.514 318.816L484.103 313.48L478.772 312.025L477.204 306.688L473.754 300.059L475.793 295.531L472.657 294.237L473.284 288.092L474.068 277.743L481.437 280.977L486.298 279.845L486.769 276.126L491.786 274.994L495.079 272.407L494.765 265.777L500.097 264.16L500.41 261.249L504.017 263.513L506.055 263.837H509.818L515.15 265.615L517.345 266.586L521.578 263.998L524.244 265.615L525.342 261.896L529.418 262.058L530.202 260.926L529.889 257.53L532.084 254.619L536.161 256.398L536.004 258.986L538.199 259.309L539.297 266.262L542.746 269.011L544.628 267.232L547.451 266.424L550.587 262.705L555.291 263.352L562.503 263.19ZM191.67 219.691L192.14 221.308L193.865 220.5L195.433 222.764L197.001 223.734L197.785 226.645L197.158 229.555L198.412 233.113L201.234 235.053L201.391 237.317L199.196 238.449L199.039 241.198L196.217 245.241L195.119 244.755L194.806 242.977L190.886 240.066L189.945 236.185L190.102 230.525L190.729 228.1L189.631 226.806L189.004 224.057L191.67 219.691ZM453.37 360.374L454.938 367.004H451.488V372.502L452.9 373.634L449.92 375.251L450.234 378.647L448.666 382.043V385.439L447.412 387.217L426.244 383.013L422.794 374.443L422.48 372.664L423.578 372.179L424.048 374.443L429.38 373.149L435.181 373.472L439.415 373.796L443.492 368.136L448.196 362.8L451.959 357.625L453.37 360.374ZM371.206 252.032L369.011 252.356L365.562 247.504L365.248 246.211H362.426L360.074 243.947L358.819 244.109L355.84 241.845L350.509 239.743L350.352 235.7L348.784 232.789L357.565 231.496L359.29 233.598L362.112 235.053L361.171 237.155L365.248 240.066L363.837 242.815L367.13 245.079L370.266 246.373L371.206 252.032ZM169.874 171.503L169.561 172.473L170.501 175.222L170.188 178.618H166.581L167.993 180.397L166.425 185.572L165.327 187.027L159.839 187.189L156.86 189.129L151.529 188.482L142.277 186.218L140.709 183.469L134.594 184.925L133.967 186.542L130.047 185.41L126.754 185.086L123.932 183.469L124.872 181.529L124.559 180.074L126.284 179.75L129.733 182.014L130.517 179.75L136.005 180.074L140.396 178.618L143.375 178.942L145.57 180.559L146.041 179.103L144.786 173.767L146.981 172.797L149.02 169.078L153.724 171.827L157.017 168.431L159.212 167.784L164.229 170.21L167.052 169.886L169.874 171.503Z" fill="white" stroke="black" stroke-width="0.3" stroke-linecap="round" stroke-linejoin="round"/>
<path d="M368.855 252.355L364.151 251.224L360.074 247.504L358.506 244.27L359.76 244.109L362.112 246.372H364.935L365.248 247.666L368.855 252.355Z" fill="white" stroke="black" stroke-width="0.3" stroke-linecap="round" stroke-linejoin="round"/>
<path d="M376.852 230.364L379.988 226.968L384.378 231.172L388.926 237.155L392.062 237.479L394.414 239.743L389.082 240.389L389.239 246.858L388.769 249.768L386.574 251.709L387.514 255.751L385.946 256.237L381.086 251.871L382.654 247.828L380.302 245.402L377.95 246.049L371.364 252.194L370.266 246.373L367.13 245.079L363.837 242.815L365.249 240.066L361.172 237.155L362.113 235.053L359.29 233.598L357.565 231.496L358.977 230.04L364.308 232.466L367.914 232.789L368.698 231.819L364.621 227.291L366.189 226.321L368.071 226.645L373.402 231.496L376.382 232.143L376.852 230.364Z" fill="white" stroke="black" stroke-width="0.3" stroke-linecap="round" stroke-linejoin="round"/>
<path d="M101.822 153.877L101.352 159.375L99.7839 159.699L99.3135 164.227L93.8255 160.507L90.6895 161.154L86.2991 157.435L83.3199 154.201L80.4974 154.039L79.5566 151.128L84.4175 149.511L88.9647 150.158L94.6095 148.541L98.5295 152.099L101.822 153.877Z" fill="white" stroke="black" stroke-width="0.3" stroke-linecap="round" stroke-linejoin="round"/>
<path d="M710.21 390.936L710.994 396.919L708.329 395.626L709.74 402.417L707.074 398.213L705.977 394.009L704.095 389.966L700.645 385.115L694.06 384.792L695.157 388.349L693.589 392.877L690.296 391.26L689.512 392.877L687.317 391.907L684.495 391.098L682.456 384.307L679.164 378.162L679.477 373.149L674.773 370.885L675.871 367.974L679.634 364.902L673.832 360.536L675.4 354.876L681.516 358.434L684.965 358.757L686.533 364.579L693.276 365.71L699.705 365.549L703.938 367.004L701.9 373.957L698.921 374.443L697.353 379.132L701.9 383.498L702.213 378H704.095L710.21 390.936ZM247.805 211.444L244.982 214.84L243.414 220.661L246.08 225.351L240.278 224.381L234.006 226.968L234.32 231.172L228.518 231.981L223.657 229.07L218.64 231.334L213.936 231.01L212.995 225.513L209.545 222.764L210.486 221.793L209.702 220.823L210.486 218.236L212.681 215.649L209.232 212.091L208.291 209.019L209.702 207.24L211.897 210.636L214.249 210.151L219.267 211.283L228.832 211.768L231.654 209.665L239.024 207.725L244.041 210.636L247.805 211.444ZM185.398 201.904L187.75 201.742L186.339 205.299L189.788 208.534L189.161 212.253L187.75 212.576L186.652 213.385L184.614 215.325L184.143 219.853L178.185 216.78L175.519 213.223L172.854 211.444L169.718 208.372L168.15 205.946L164.7 202.065L165.641 198.67L168.15 200.61L169.404 198.831L172.227 198.67L177.871 200.125L182.262 199.963L185.398 201.904ZM259.094 135.12L254.233 134.796L253.293 135.605L255.174 138.192L257.683 143.367L252.509 143.69L250.941 145.469L251.254 149.511L248.589 148.703L243.257 149.026L241.376 147.086L239.181 148.541L236.829 147.409L231.968 147.247L224.755 145.307L218.64 144.66L213.936 144.984L210.956 147.086L208.134 147.409L207.507 143.852L205.155 140.294L208.604 138.677L208.134 135.605L205.939 132.694L205.155 129.137H211.113L217.072 126.226L217.699 121.86L222.246 119.273L220.992 115.715L224.441 114.421L230.243 111.511L236.829 113.451L237.926 115.392L240.905 114.421L246.864 116.2L248.275 119.919L247.334 122.022L252.038 127.196L254.704 128.651V130.107L258.937 131.562L261.133 133.664L259.094 135.12Z" fill="white" stroke="black" stroke-width="0.3" stroke-linecap="round" stroke-linejoin="round"/>
<path d="M124.402 180.235L124.715 181.691L123.775 183.631L126.597 185.248L129.89 185.571L129.576 188.806L126.911 190.261L122.207 189.291L120.952 192.525L117.973 192.848L116.875 191.555L113.426 194.465L110.29 194.789L107.467 193.01L105.272 189.452L102.293 190.746V187.027L106.84 182.499L106.527 180.397L109.349 181.205L110.917 179.75H116.248L117.503 178.133L124.402 180.235ZM838.002 418.911L832.671 422.954L826.556 420.367L825.301 413.252L828.124 409.532L835.493 407.269L839.727 407.43L841.765 410.664L839.257 414.222L838.002 418.911ZM867.324 164.712L878.614 170.533L886.14 177.971H895.705L898.998 174.899L907.622 172.473L909.19 179.912L908.876 182.822L912.326 191.555L913.11 199.64L904.486 198.184L900.879 201.095L906.838 208.048L911.699 217.751L908.563 217.912L910.915 222.117L904.015 217.266V221.955L896.019 225.513L899.468 229.879L893.667 229.555L889.119 226.968L887.708 232.951L882.847 237.317L880.182 242.653L872.185 244.917L869.206 248.798L863.247 251.062L864.972 247.181L862.15 243.947L864.658 238.449L859.013 234.245L854.78 237.155L850.233 242.977L848.665 248.313L842.393 248.636L840.825 252.517L846.783 258.015L852.741 259.471L854.466 263.028L860.895 265.454L865.756 259.471L873.126 262.705L877.516 263.028L880.339 267.232L871.871 269.496L870.617 274.024L865.913 278.228L864.815 284.05L873.753 288.577L879.554 296.663L886.454 304.263L893.353 310.569L895.391 316.714L891.942 318.978L894.921 323.344L899.782 325.931L900.723 332.723L900.879 339.353L897.43 340.161L894.764 349.055L891.942 360.051L887.708 369.915L879.711 377.515L871.401 384.63L863.718 385.6L860.111 389.158L857.289 386.57L854.153 390.613L845.058 394.817L837.689 395.949L836.748 404.681L832.828 405.166L830.005 399.022L831.103 395.949L821.381 393.2L818.402 394.656L811.033 392.392L807.112 388.996L807.426 384.145L800.84 382.528L796.92 379.455L791.746 383.821L785.16 384.792L779.672 384.63L776.223 386.732L772.773 387.864L775.282 397.405L771.519 397.081L770.578 395.141L769.951 391.583L765.247 394.009L761.954 392.392L756.309 389.319L757.25 382.528L752.546 380.911L749.567 373.311L742.511 374.766L741.57 364.902L746.901 357.949L745.803 351.157L744.235 344.851L740.786 342.91L737.336 338.059L733.416 338.706L725.733 337.412L727.301 333.855L722.754 328.68L718.677 332.238L712.562 330.297L705.819 335.472L700.958 341.617L695.627 342.587L692.178 340.323L688.571 339.999L683.24 338.221L679.947 340.323L676.654 346.468L674.773 339.838L670.853 341.617L662.699 340.646L654.545 338.868L648.273 335.148L642.628 333.531L639.492 329.489L635.416 328.357L627.419 322.859L621.46 320.271L619.108 322.212L608.289 316.391L600.449 311.216L596.372 301.999L601.547 303.131L600.763 298.926L596.999 294.722L596.059 287.931L586.337 278.067L574.42 274.832L570.814 268.364L564.855 264.483L562.974 262.219L560.778 257.53L560.151 254.296L555.447 252.355L553.566 253.326L549.646 245.564L551.057 243.785L549.489 241.845L554.663 237.964L558.74 236.347L565.953 237.479L566.737 232.142L574.734 231.172L575.988 227.776L584.612 223.41L584.926 221.632L582.731 216.78L586.337 214.678L575.204 200.448L586.651 197.214L589.159 195.435L587.905 180.882L601.547 183.631L603.585 179.912L600.449 171.827L605.153 171.018L607.505 165.52L609.7 164.873L613.777 170.533L620.99 174.737L631.339 177.648L638.552 184.278L640.276 193.657L644.04 197.214L652.193 198.67L661.288 199.64L671.323 204.814L675.557 205.785L681.829 213.223L687.787 218.074L694.843 217.751L709.112 219.691L717.109 218.559L724.165 219.691L735.925 224.704H743.765L747.999 227.13L753.487 222.764L762.581 219.853L772.146 219.529L778.261 216.619L780.77 212.253L783.749 209.342L781.397 206.593L777.791 203.521L778.418 198.184L782.495 198.993L789.864 200.61L793.941 196.244L801.938 193.172L803.506 187.674L806.642 185.41L815.109 184.44L820.597 185.41L819.657 182.499L810.562 176.839L803.977 174.252L800.84 177.163L793.941 175.869L791.119 176.839L787.669 173.605L787.356 165.52L786.572 159.375L795.823 162.448L801.311 157.435L798.959 153.877L798.645 145.469L800.213 142.881L797.077 138.515L792.373 136.737L794.568 132.694L800.997 131.239L808.837 130.915L819.657 133.341L827.183 136.252L836.905 144.337L841.765 147.894L847.41 152.745L855.25 160.507L867.324 164.712Z" fill="white" stroke="black" stroke-width="0.3" stroke-linecap="round" stroke-linejoin="round"/>
<path d="M156.076 151.29L159.212 153.877L163.916 154.524L163.602 156.788L167.052 158.405L167.836 156.303L172.069 157.273L173.01 159.861L177.714 160.184L181.007 164.227H179.125L178.184 165.682L176.773 166.005L176.46 167.784L175.362 168.107L175.205 168.916L173.167 169.725L170.344 169.563L169.56 171.342L166.581 169.725L163.759 170.048L158.741 167.622L156.546 168.269L153.253 171.665L148.549 168.916L144.786 165.52L141.493 163.58L140.552 160.022L139.298 157.758L143.531 156.141L145.727 154.039L150.117 152.422L151.528 150.805L153.096 151.775L156.076 151.29Z" fill="white" stroke="black" stroke-width="0.3" stroke-linecap="round" stroke-linejoin="round"/>
<path d="M148.864 130.269L150.588 134.311L149.02 136.575L151.372 139.324L153.254 143.528L152.94 146.439L155.92 151.452L153.097 152.26L151.529 151.29L150.118 152.907L145.728 154.524L143.532 156.626L139.299 158.243L140.553 160.507L141.494 164.065L144.787 166.005L148.55 169.401L146.512 173.12L144.316 174.091L145.571 179.427L145.1 180.882L142.905 179.265L139.926 178.942L135.536 180.397L130.048 180.074L129.264 182.337L125.814 180.074L124.089 180.397L117.19 177.971L115.936 179.588H110.604L111.075 173.767L114.054 168.269L104.959 166.652L101.98 164.55L102.294 160.992L101.039 159.214L101.51 153.716L100.099 145.307H103.705L105.273 142.396L106.371 135.12L105.273 132.371L106.214 130.754L111.231 130.43L112.486 132.047L116.406 128.166L114.838 125.256L114.368 120.89L119.072 121.86L122.678 120.728L122.992 123.639L129.107 125.417L129.264 128.328L135.222 126.711L138.515 124.609L145.571 127.681L148.864 130.269ZM138.985 115.715L136.006 122.022L129.42 117.494L128.323 114.26L136.947 111.672L138.985 115.715Z" fill="white" stroke="black" stroke-width="0.3" stroke-linecap="round" stroke-linejoin="round"/>
<path d="M122.99 120.728L119.384 121.86L114.68 120.89L112.014 116.524L111.544 108.6L112.328 106.336L113.896 104.072L118.914 103.749L120.952 101.485L125.499 99.2214V103.264L123.931 105.851L124.872 107.953L128.165 109.085L126.91 111.996L125.186 111.188L121.266 116.685L122.99 120.728ZM223.97 85.7999L225.068 87.0935L221.775 91.4595L224.754 98.7362L222.716 101.162L218.012 101L212.524 98.0894L209.858 97.1192L205.154 98.4128L204.997 93.8851L203.116 94.8553L199.039 92.1063L197.784 87.7403L204.684 85.4765L211.74 84.5062L218.168 85.6382L223.97 85.7999Z" fill="white" stroke="black" stroke-width="0.3" stroke-linecap="round" stroke-linejoin="round"/>
<path d="M211.898 15.2965L212.368 20.1476L221.619 24.9988L218.013 30.4967L226.167 38.582L223.971 44.7268L230.087 50.2247L228.989 55.0759L238.24 60.0887L237.143 63.8079L232.909 68.1739L222.874 77.7145L212.838 78.3613L203.274 81.1103L194.336 82.7274L190.259 78.523L184.301 76.0975L184.458 68.659L180.694 61.8675L182.733 57.5014L186.81 52.9737L197.942 44.8885L201.235 43.2714L200.138 40.199L191.984 36.8032L189.789 33.8925L187.594 22.8966L178.499 18.0455L170.973 14.488L173.795 12.7092L180.224 16.2667L186.81 15.9433L192.768 17.5604L197.002 14.488L198.413 9.31343L205.782 7.04956L212.995 9.79854L211.898 15.2965Z" fill="white" stroke="black" stroke-width="0.3" stroke-linecap="round" stroke-linejoin="round"/>
<path d="M46.6286 92.268L40.1998 100.677L46.1582 99.7064H52.587L51.019 106.013L45.6878 112.966L51.803 113.29L52.1166 114.26L57.4479 123.477L61.5247 124.771L65.1311 133.826L66.8559 136.899L74.2255 138.354L73.4415 143.528L70.4623 145.792L72.8143 149.997L67.3263 154.201L59.1727 154.039L48.667 156.303L45.8446 154.686L41.7678 158.405L36.1229 157.435L31.5757 160.507L28.4397 158.89L37.6909 150.482L43.179 148.703L33.6141 147.409L32.0461 144.175L38.475 141.75L35.3389 137.545L36.5933 132.371L45.531 133.179L46.4718 128.49L42.5518 123.639L42.395 123.477L35.1821 122.022L33.7709 119.92L35.9661 116.362L34.0845 114.098L30.7917 117.817L30.6349 110.217L27.8125 106.336L30.1645 98.2511L34.8685 92.1063L39.4158 92.5914C39.7294 92.9148 46.6286 92.268 46.6286 92.268Z" fill="white" stroke="black" stroke-width="0.3" stroke-linecap="round" stroke-linejoin="round"/>
<path d="M352.234 219.53L358.662 221.147L361.328 224.542L365.875 226.483L364.307 227.453L368.384 231.981L367.6 232.951L363.994 232.628L358.662 230.202L357.251 231.657L348.47 232.951L341.414 228.747L334.515 229.07L334.829 225.513L332.163 220.015L327.929 216.942L324.166 215.972L321.344 213.547L321.814 212.576L327.616 214.032L337.337 215.325L346.902 219.368L348.47 220.985L352.234 219.53Z" fill="white" stroke="black" stroke-width="0.3" stroke-linecap="round" stroke-linejoin="round"/>
<path d="M222.716 277.42L226.636 280.33L231.81 279.845L236.828 280.33V281.948L240.278 280.977L239.651 283.403L230.086 284.05L229.929 282.756L221.618 281.139L222.716 277.42ZM234.319 235.053L230.242 234.73L226.793 233.921L218.953 236.023L223.97 240.713L220.834 242.168H217.228L213.308 237.964L212.21 239.743L214.249 244.594L217.855 248.475L215.503 250.253L219.58 253.973L223.03 256.398L223.5 261.088L217.228 258.824L219.423 263.028L215.346 263.837L218.482 271.275L214.092 271.437L208.29 267.879L205.311 261.249L203.743 255.751L200.921 252.032L197.157 247.181L196.53 244.917L199.353 240.875L199.509 238.126L201.705 236.994L201.548 234.73L205.782 234.083L207.977 232.304L211.426 232.466L212.367 231.011L213.622 230.687L218.326 231.011L223.343 228.747L228.204 231.657L234.006 230.849L233.692 226.645L237.142 228.908L235.73 234.083L234.319 235.053Z" fill="white" stroke="black" stroke-width="0.3" stroke-linecap="round" stroke-linejoin="round"/>
<path d="M183.516 193.333L185.398 196.567L187.593 198.831L185.398 201.904L182.419 200.125L178.028 200.287L172.383 198.831L169.561 198.993L168.307 200.772L165.798 198.831L164.857 202.227L168.307 206.108L169.875 208.534L173.011 211.606L175.676 213.385L178.342 216.942L184.3 220.015L183.673 221.308L177.401 218.398L173.324 215.487L167.366 213.061L161.407 207.078L162.662 206.431L159.526 202.874L159.212 200.125L155.135 198.831L153.41 202.389L151.372 199.64V196.729L151.529 196.567L156.076 196.891L157.017 195.597L159.212 196.891L161.721 197.053L161.564 194.789L163.759 193.819L164.073 190.584L168.934 188.321L170.972 189.291L175.99 192.848L181.321 194.465L183.516 193.333Z" fill="white" stroke="black" stroke-width="0.3" stroke-linecap="round" stroke-linejoin="round"/>
<path d="M202.019 172.959L205.782 175.222L206.409 177.486L202.803 179.103L200.451 184.601L197.158 190.099L192.297 191.716L188.22 191.393L183.516 193.495L181.321 194.789L175.99 193.172L170.972 189.614L168.934 188.644L167.366 185.895L166.425 185.733L167.993 180.559L166.582 178.78H170.031L170.345 175.384L173.794 177.648L176.146 178.456L181.321 177.486L181.634 175.869L183.986 175.546L186.809 174.414L187.593 174.899L190.415 173.929L191.67 171.988L193.708 171.503L200.607 173.929L202.019 172.959Z" fill="white" stroke="black" stroke-width="0.3" stroke-linecap="round" stroke-linejoin="round"/>
<path d="M618.481 323.182L615.032 327.063L613.934 334.825L621.147 337.897L628.36 341.94L638.238 346.629L647.96 347.761L652.664 351.966L658.152 352.774L666.776 354.715L672.578 354.553L672.734 351.319L670.853 345.983L670.539 342.425L674.459 340.646L676.341 347.276L676.811 348.893L683.71 352.127L687.787 350.834L693.746 351.319L699.391 350.995L698.763 345.983L695.471 343.234L700.802 342.263L705.663 336.119L712.405 330.944L718.52 332.885L722.597 329.327L727.144 334.502L725.576 338.059L733.26 339.353L734.514 342.425L732.319 344.042L734.044 349.055L728.712 347.6L720.872 353.259L721.97 358.11L719.461 365.064L719.775 369.106L717.736 375.898L711.935 373.958L713.032 382.69L711.778 385.6L713.032 389.158L709.896 391.098L704.408 377.838H702.527L702.213 383.336L697.666 378.97L699.234 374.281L702.213 373.796L704.251 366.843L700.018 365.387L693.589 365.549L686.846 364.417L685.278 358.596L681.829 358.272L675.714 354.715L674.146 360.374L679.947 364.74L676.184 367.813L675.086 370.723L679.79 372.987L679.477 378L682.77 384.145L684.808 390.937L684.181 394.009L679.477 393.847L671.166 395.464L672.264 401.609L669.285 406.46L659.877 412.12L653.291 421.822L648.587 427.158L642.315 432.656L642.629 436.376L639.336 438.478L633.377 441.388L630.085 441.712L628.517 448.018L630.869 458.852L631.809 465.644L629.457 473.568L630.398 487.636L626.792 487.959L623.969 494.266L626.321 497.176L619.893 499.44L617.697 504.938L614.875 507.364L607.819 499.602L603.899 487.959L600.763 479.551L597.94 475.67L593.707 467.585L591.198 457.235L589.473 452.061L582.104 440.742L577.713 424.571L574.264 414.545L573.323 404.52L571.128 396.758L561.406 401.771L556.388 400.8L546.196 390.775L549.175 387.864L546.823 384.63L537.886 377.515L541.963 372.017H557.172L554.977 364.902L550.587 360.698L548.862 354.23L543.844 350.672L549.959 341.94L558.113 342.587L563.758 333.855L566.58 325.446L571.441 317.037L570.187 311.054L574.891 306.203L568.462 302.161L564.855 296.501L560.779 289.224L563.287 285.667L573.95 287.769L581.163 286.475L585.867 279.522L595.588 289.386L596.529 296.178L600.292 300.382L601.076 304.586L595.902 303.454L599.979 312.671L607.819 317.846L618.481 323.182Z" fill="white" stroke="black" stroke-width="0.3" stroke-linecap="round" stroke-linejoin="round"/>
<path d="M26.716 129.298L27.6568 134.958L22.796 142.073L11.6631 146.762L3.03906 145.631L8.37029 137.384L5.70468 129.298L14.1719 123.154L18.8759 119.596L19.9735 123.8L18.4055 128.005L22.1688 127.843L26.716 129.298Z" fill="white" stroke="black" stroke-width="0.3" stroke-linecap="round" stroke-linejoin="round"/>
<path d="M368.854 252.356L371.049 252.032L377.635 245.888L379.987 245.241L382.339 247.666L380.771 251.709L385.632 256.075L387.2 255.59L390.336 261.735L396.921 263.352L402.253 267.556L411.974 269.011L422.009 266.747L422.323 264.807L427.811 263.19L431.574 258.339L436.121 258.662L438.63 257.045L443.491 257.854L451.802 262.058L457.133 263.028L466.384 270.305L471.402 270.628L473.597 277.42L472.813 287.769L472.186 293.914L475.322 295.207L473.283 299.735L476.733 306.365L478.301 311.701L483.632 313.157L485.043 318.493L480.183 325.931L484.259 330.297L487.709 335.31L494.922 338.868L496.176 346.144L499.626 347.6L500.723 351.319L491.315 355.685L489.904 365.226L476.576 362.8L468.736 360.86L460.896 359.889L456.819 349.702L453.37 348.247L448.195 349.702L441.766 353.745L432.985 350.996L425.302 344.527L418.403 342.264L412.915 334.34L406.329 323.344L402.88 324.638L398.176 321.889L395.981 325.123L391.59 320.757L390.963 316.391H388.768L389.081 310.246L384.691 304.101L375.753 299.412L369.952 291.488L370.579 285.02L373.401 282.109L372.304 277.258L367.6 274.671L361.641 264.807L356.937 258.177L357.878 255.59L354.271 246.211L358.348 243.785L359.916 247.019L363.993 250.739L368.854 252.356Z" fill="white" stroke="black" stroke-width="0.3" stroke-linecap="round" stroke-linejoin="round"/>
<path d="M361.956 265.292L367.914 275.156L372.618 277.743L373.716 282.594L370.894 285.505L370.266 291.973L376.068 299.897L385.006 304.586L389.396 310.731L389.082 316.876H391.278L391.905 321.242L396.295 325.608L392.218 325.284L387.514 324.476L383.438 332.561L370.58 331.914L349.412 315.259L338.593 309.437L329.969 307.173L326.049 297.148L339.847 288.416L341.101 278.39L339.533 272.245L342.983 270.143L345.649 264.969L348.314 263.675L356.154 264.807L358.82 266.909L361.956 265.292ZM306.135 297.633L306.605 301.029L305.821 302.322H305.978L305.037 304.91L302.372 303.939L301.431 309.437L303.312 310.408L301.744 311.54L301.588 313.803L304.724 312.833L305.194 316.067L302.999 329.327L302.058 327.225L297.197 315.097L298.922 312.348L298.452 311.863L299.863 307.982L300.647 301.837L301.431 299.573H303.783L304.253 298.118L306.135 297.633ZM166.896 256.398L164.701 263.028L165.798 265.454L164.701 269.658L159.369 266.586L155.92 265.615L146.512 261.411L147.139 257.207L154.979 258.015L161.721 257.045L166.896 256.398ZM124.089 231.819L128.166 237.64L127.696 248.636L124.716 248.151L122.051 250.9L119.542 248.636L118.915 238.611L117.347 233.921L120.953 234.245L124.089 231.819Z" fill="white" stroke="black" stroke-width="0.3" stroke-linecap="round" stroke-linejoin="round"/>
<path d="M151.373 188.482L150.902 192.525L152.627 196.082L147.453 194.789L142.592 197.699L143.062 201.742L142.435 204.006L144.787 208.21L151.059 212.415L154.665 219.206L162.349 225.836L167.366 225.674L169.091 227.453L167.366 229.07L173.325 231.981L178.342 234.406L184.301 238.772L185.085 240.228L184.144 243.138L180.224 239.258L174.422 237.964L172.07 243.3L176.931 246.373L176.461 250.577L173.795 251.062L170.659 258.177L167.837 258.824L167.68 256.237L168.777 251.871L170.189 250.092L167.366 245.241L165.171 241.036L162.349 240.066L160.153 236.509L155.92 234.892L152.941 231.496L148.237 231.011L142.905 227.453L136.79 221.955L132.086 217.266L129.734 209.18L126.441 208.21L121.11 205.461L118.288 206.432L114.681 210.312L112.016 210.798L112.643 207.24L109.193 206.27L107.312 199.963L109.507 197.538L107.625 194.465L107.782 192.201L110.604 193.98L113.74 193.657L117.19 190.746L118.288 192.04L121.267 191.716L122.521 188.482L127.225 189.453L129.891 187.997L130.204 184.763L134.124 185.895L134.752 184.278L140.867 182.823L142.435 185.572L151.373 188.482Z" fill="white" stroke="black" stroke-width="0.3" stroke-linecap="round" stroke-linejoin="round"/>
<path d="M334.625 306.106L333.528 307.351L320.607 311.378L328.087 319.447L326.064 320.692L325.123 323.49L319.98 324.573L318.585 327.37L315.935 329.845L308.142 328.454L307.828 327.37L310.008 314.644L309.537 311.54L310.321 309.211L309.851 304.247L310.792 301.773L318.585 305.023L330.737 296.485L334.625 306.106ZM971.613 290.292L973.636 293.089L972.083 297.892L968.195 295.256L965.545 297.116L965.701 301.773L960.402 299.606L958.849 295.887L960.402 291.084L964.604 292.022L965.843 288.61L971.597 290.324L971.613 290.292Z" fill="white" stroke="black" stroke-width="0.29" stroke-linecap="round" stroke-linejoin="round"/>
<path d="M506.212 132.371L511.7 132.047L523.304 124.609L522.363 127.196L532.868 133.341L555.918 153.554L557.329 149.35L567.835 153.877L575.675 151.775L579.752 153.23L584.926 157.92L589.944 159.537L594.021 163.094L601.547 161.963L607.035 166.814L604.683 172.312L599.979 173.12L603.115 181.205L601.077 184.925L587.435 182.176L588.69 196.729L586.181 198.508L574.734 201.742L585.867 215.972L582.261 218.074L584.456 222.925L580.066 221.632L575.832 218.721L565.953 217.912L555.134 217.589L553.096 218.559L542.747 215.002L539.611 216.78L540.238 221.632L528.635 218.721L524.715 219.853L524.401 223.41L521.108 225.027L514.366 230.687L513.268 236.67H510.76L507.937 232.789L499.47 232.466L496.334 225.674L493.041 225.512L491.159 217.266L481.595 211.282L470.775 211.929L463.562 213.061L455.252 205.623L449.294 202.55L437.69 196.729L436.279 196.082L421.226 200.933L429.066 231.172L425.773 231.496L419.815 225.027L414.954 222.764L407.898 224.381L405.703 227.291L404.919 225.189L405.703 221.793L403.821 218.883L395.668 215.972L390.964 208.533L386.887 206.431L386.103 203.682L392.532 204.491L391.277 198.508L396.452 197.214L402.41 198.346L401.469 190.423L399.117 185.41L392.845 185.733L386.887 183.793L380.458 187.35L374.97 189.129L371.52 187.674L371.207 183.469L365.719 178.456L361.172 178.78L354.586 173.282L356.781 167.137L354.586 165.52L357.408 156.626L364.935 161.316L364.151 155.494L374.343 146.762L383.908 146.439L398.961 151.937L407.271 155.171L412.759 151.775L422.481 151.613L431.732 155.818L432.673 153.392L441.454 153.716L441.767 149.996L430.007 144.498L434.398 140.618L432.516 138.515L437.534 136.413L431.105 130.915L432.83 128.166L454.154 125.417L456.35 123.477L469.991 120.566L473.911 117.332L485.358 118.949L490.846 127.034L496.177 125.094L505.115 127.843L506.212 132.371Z" fill="white" stroke="black" stroke-width="0.3" stroke-linecap="round" stroke-linejoin="round"/>
<path d="M584.456 222.602L584.142 224.381L575.518 228.747L574.264 232.143L566.267 233.113L565.483 238.449L558.27 237.317L554.194 238.934L549.019 242.815L550.587 244.756L549.176 246.534L537.102 247.828L528.165 245.079L521.265 245.726L520.481 241.036L528.008 242.33L529.733 239.904L534.907 240.713L541.493 234.73L532.398 230.364L528.321 232.466L522.52 229.394L526.283 224.057L524.088 223.249L524.401 219.691L528.321 218.559L539.925 221.47L539.297 216.619L542.434 214.84L552.782 218.398L554.821 217.427L565.64 217.751L575.518 218.559L579.752 221.47L584.456 222.602ZM822.323 456.104L824.518 461.602L824.675 471.627L813.385 478.095L816.835 482.947L809.465 483.593L803.664 486.989L797.705 485.857L794.412 481.491L790.022 472.921L787.356 462.895L791.276 456.104L800.214 454.487L806.8 455.619L813.072 458.853L815.581 453.193L822.323 456.104ZM901.664 260.441V259.632L904.8 259.956L905.584 256.398L910.131 255.913L912.64 255.428V253.488L923.146 263.19L927.223 268.688L931.456 278.228L930.829 282.756L925.498 284.373L921.578 287.931L915.776 288.578L913.111 284.05L911.699 277.905L905.114 269.335L909.347 267.879L901.664 260.441ZM392.218 325.123L394.1 328.68L393.786 330.621L396.766 336.766L391.905 337.089L389.71 333.046L383.438 332.238L387.514 324.153L392.218 325.123Z" fill="white" stroke="black" stroke-width="0.3" stroke-linecap="round" stroke-linejoin="round"/>
<path d="M306.134 297.633L304.409 297.795L303.939 299.25H301.744L303.312 292.458L306.134 286.637V286.314L309.27 286.637L310.838 289.871L307.389 293.105L306.134 297.633ZM220.678 115.554L221.932 119.111L217.385 121.698L216.758 126.064L210.799 128.975H204.841L203.116 126.549L199.98 125.579L199.196 123.639L199.51 121.375L196.687 120.243L190.258 118.788L188.063 112.158L194.492 109.894L204.371 110.379L210.015 109.57L211.113 111.187L214.249 111.673L220.678 115.554ZM102.293 164.55L100.568 164.712L99.1572 164.065L99.6276 159.537L101.196 159.214L102.45 160.993L102.293 164.55Z" fill="white" stroke="black" stroke-width="0.3" stroke-linecap="round" stroke-linejoin="round"/>
<path d="M222.873 101.323L226.009 102.94L227.263 106.66L229.929 111.349L224.127 114.26L220.678 115.553L214.406 111.834L211.27 111.349L210.172 109.732L204.527 110.541L194.649 110.055L188.22 112.319L187.593 106.498L189.788 101.647L194.963 99.0595L200.451 104.881L205.155 104.557L205.311 98.5744L210.015 97.2808L212.681 98.251L218.169 101.162L222.873 101.323ZM243.728 196.729L242.16 193.01L242.473 189.452L241.689 185.895L237.456 181.044L234.947 177.648L232.751 175.384L230.713 174.414L232.124 173.282L236.201 172.473L241.219 174.899L243.728 175.222L247.02 177.486L246.864 180.235L249.372 181.529L250.784 184.925L253.292 187.027L252.979 188.321L254.233 189.129L252.665 189.776L248.902 189.452L248.118 188.321L246.864 188.967L247.648 190.423L246.236 193.172L245.452 195.921L243.728 196.729ZM213.779 230.849L212.524 231.172L211.583 232.628L208.134 232.466L205.939 234.245L201.705 234.891L198.883 232.951L197.628 229.394L198.255 226.483L199.196 226.645L199.353 225.027L202.959 223.734L204.527 223.41L206.723 223.087L209.702 222.764L213.151 225.513L213.779 230.849ZM194.963 218.721L194.022 220.5L192.297 221.308L191.826 219.691L189.474 223.734L190.102 226.483L188.69 225.836L186.495 223.087L183.673 221.47L184.3 220.176L184.77 215.649L186.809 213.708L187.906 212.9L189.631 214.355L190.729 215.487L192.924 216.457L195.59 218.074L194.963 218.721Z" fill="white" stroke="black" stroke-width="0.3" stroke-linecap="round" stroke-linejoin="round"/>
<path d="M223.97 11.9007L215.974 14.6497L211.897 15.2965L212.838 10.4454L205.625 7.69638L198.255 9.96025L196.844 15.1348L192.61 18.2072L186.652 16.5901L180.066 16.9136L173.637 13.356L170.815 15.1348L167.522 15.4582L167.679 20.1476L157.644 19.0157L156.86 23.0583H151.842L149.02 28.0712L144.786 35.9947L137.573 46.1821L139.768 48.7694L138.2 51.6801L132.869 51.5184L129.89 58.4717L131.144 68.4974L135.064 72.2166L134.124 81.1103L129.89 86.2849L127.695 90.6509L123.618 85.9615L112.799 94.6935L105.115 96.4723L96.9618 92.5914L94.7666 84.5061L92.2578 67.042L97.2754 62.1909L111.544 55.8844L121.736 48.2843L130.831 38.2586L141.964 24.352L149.961 19.0157L162.975 10.2837L173.637 7.21127L182.105 7.53468L188.69 1.87501L197.942 2.19842L206.722 0.904785L223.97 5.91763L217.855 7.69638C217.228 7.53468 223.97 11.9007 223.97 11.9007ZM453.37 360.374L451.802 357.464L453.527 354.715L454.468 355.362L454.154 358.919L453.37 360.374Z" fill="white" stroke="black" stroke-width="0.3" stroke-linecap="round" stroke-linejoin="round"/>
<path d="M181.478 124.932L188.847 125.903L199.98 125.741L203.116 126.711L204.841 129.137L205.625 132.694L207.82 135.605L208.291 138.677L204.841 140.294L207.193 143.852L207.82 147.409L211.897 154.363L211.583 156.626L208.761 157.597L204.057 164.388L206.095 167.946L204.684 167.461L198.412 164.388L194.022 165.52L191.042 164.712L187.593 166.329L184.143 163.418L181.791 164.55L181.478 164.065L178.185 160.022L173.481 159.699L172.54 157.112L168.306 156.141L167.522 158.243L164.073 156.626L164.386 154.363L159.682 153.716L156.546 151.128L153.567 146.116L153.881 143.205L151.999 139.001L149.647 136.252L151.215 133.988L149.49 129.945L153.41 127.681L162.348 124.124L169.561 121.536L175.519 122.83L176.303 124.771L181.478 124.932Z" fill="white" stroke="black" stroke-width="0.3" stroke-linecap="round" stroke-linejoin="round"/>
<path d="M230.556 174.576L232.594 175.546L234.789 177.81L237.298 181.206L241.532 186.057L242.316 189.614L242.002 193.172L243.57 196.891L246.55 198.508L249.372 197.053L252.351 198.508L252.822 200.772L249.999 202.389L247.961 201.58L247.49 211.606L243.57 210.636L238.553 207.725L231.183 209.666L228.361 211.768L218.796 211.283L213.778 210.151L211.426 210.636L209.231 207.24L207.977 205.785L209.231 204.329L207.663 203.359L205.781 205.138L201.861 202.712L200.92 199.316L196.844 197.538L195.903 194.789L192.14 191.716L197 190.099L200.293 184.601L202.645 179.103L206.252 177.486L208.761 175.708L212.837 176.678H216.914L220.05 178.78L222.089 177.486L226.636 176.678L227.89 174.737L230.556 174.576Z" fill="white" stroke="black" stroke-width="0.3" stroke-linecap="round" stroke-linejoin="round"/>
<path d="M209.388 207.078L207.977 208.857L208.918 211.93L212.367 215.487L210.172 218.074L209.388 220.662L210.172 221.632L209.231 222.602L206.252 222.925L204.057 223.249L203.743 222.602L204.527 221.632L204.998 219.53L204.057 219.691L202.646 218.074L201.548 217.751L200.607 216.457L199.353 215.972L198.412 214.84L197.315 215.325L196.687 218.074L195.119 218.559L195.59 217.913L192.924 216.296L190.729 215.325L189.631 214.193L187.906 212.738L189.318 212.415L189.945 208.695L186.495 205.461L187.906 201.904L185.554 202.066L187.75 198.993L185.554 196.729L183.673 193.495L188.377 191.393L192.454 191.716L196.217 194.789L197.158 197.538L201.235 199.317L202.175 202.712L206.095 205.138L207.977 203.359L209.545 204.329L208.291 205.785L209.388 207.078Z" fill="white" stroke="black" stroke-width="0.3" stroke-linecap="round" stroke-linejoin="round"/>
<path d="M204.371 167.461L202.803 169.725L201.862 172.959L200.608 173.767L193.708 171.342L191.67 171.827L190.416 173.767L187.593 174.737L186.809 174.252L183.987 175.384L181.635 175.708L181.321 177.325L176.147 178.295L173.795 177.486L170.345 175.222L169.404 172.474L169.718 171.503L170.502 169.725L173.324 169.886L175.363 169.078L175.52 168.269L176.617 167.946L176.931 166.167L178.342 165.844L179.283 164.388H181.164L181.478 164.873L183.83 163.741L187.28 166.652L190.729 165.035L193.708 165.844L198.099 164.712L204.371 167.461Z" fill="white" stroke="black" stroke-width="0.3" stroke-linecap="round" stroke-linejoin="round"/>
<path d="M168.777 188.482L163.916 190.746L163.602 193.98L161.407 194.95L161.564 197.214L159.055 197.053L156.86 195.759L155.919 197.053L151.372 196.729L152.783 196.082L151.058 192.525L151.528 188.482L156.86 189.129L159.839 187.189L165.327 187.027L166.424 185.572L167.365 185.733L168.777 188.482ZM191.983 37.1266L183.202 39.2288L178.812 44.2417L180.38 48.7694L172.54 54.5908L162.661 61.0589L159.996 71.5698L164.7 76.906L170.658 81.1103L166.581 89.6807L160.78 91.4594L159.996 104.396L157.33 111.834L150.117 111.026L147.295 117.17L140.396 117.494L138.044 110.055L132.399 101.162L127.067 90.3275L129.263 85.9615L133.496 80.7869L134.437 71.8932L130.517 68.174L129.263 58.1483L132.242 51.195L137.573 51.3567L139.141 48.446L136.946 45.8587L144.159 35.6713L148.392 27.7478L151.215 22.7349H156.232L157.016 18.6923L167.052 19.8242L166.895 15.1348L170.188 14.8114L177.714 18.3689L186.809 23.22L189.004 34.216L191.983 37.1266ZM326.204 296.663L313.974 305.556L306.134 302.161H305.977L306.761 300.867L306.291 297.471L307.388 292.944L310.838 289.709L309.27 286.475L306.134 286.152L304.723 279.845L305.977 276.288L307.545 274.509L309.113 272.73L308.8 268.203L311.152 269.82L318.208 267.556L321.971 269.173H327.459L334.672 266.101L338.278 266.262L345.648 264.969L342.982 270.143L339.533 272.245L341.101 278.39L339.846 288.416L326.204 296.663ZM529.732 239.904L528.007 242.33L520.481 241.036L521.265 245.726L528.164 245.079L537.102 247.828L549.175 246.534L553.095 254.296L554.977 253.326L559.681 255.266L560.308 258.5L562.503 263.19H555.761L551.057 262.543L547.921 266.262L545.098 267.071L543.217 268.85L539.767 266.101L538.67 259.147L536.474 258.824L536.631 256.237L532.554 254.458L530.359 257.368L530.673 260.764L529.889 261.896L525.812 261.734L524.714 265.454L522.049 263.837L517.815 266.424L515.62 265.454L517.188 257.045L514.209 250.9L508.877 248.96L509.661 245.402L515.149 245.726L517.031 241.198L517.658 235.862L525.812 233.921L525.498 237.802L527.066 240.066L529.732 239.904ZM506.212 263.675L504.173 263.352L500.567 261.088L500.253 263.998L494.922 265.615L495.236 272.245L491.943 274.833L486.925 275.965L486.455 279.684L481.594 280.816L474.224 277.582L472.029 270.79L467.012 270.467L457.76 263.19L452.429 262.22L444.119 258.015L439.258 257.207L436.749 258.824L432.202 258.5L428.439 263.352L422.951 264.969L420.599 259.147L419.815 250.415L414.013 247.504L414.483 242.007L410.093 241.521L409.936 234.568L416.522 236.67L421.696 234.083L415.738 229.07L412.758 224.381L408.054 226.483L408.838 232.628L405.546 227.291L407.741 224.381L414.797 222.764L419.658 225.028L425.616 231.496L428.909 231.172L436.279 231.011L434.083 226.806L438.787 223.896L443.021 219.044L452.9 223.41L455.252 229.879L458.074 231.496L464.973 231.172L467.639 232.789L472.97 241.36L481.908 247.019L487.239 250.9L495.079 254.943L504.801 258.5L506.212 263.675ZM141.65 298.765L141.493 305.071L138.2 307.335L136.162 310.084L131.615 313.318L132.399 316.714L131.928 320.272L128.636 322.05L125.343 307.174L121.109 303.778L120.952 301.837L115.307 296.824L114.523 290.68L118.6 285.99L120.011 279.199L118.757 271.275L120.011 267.071L127.224 263.837L131.928 264.807V269.011L137.416 265.939L137.887 267.556L134.751 271.76L134.908 275.479L137.26 277.582L136.632 284.858L132.242 289.063L133.81 293.59L137.26 293.752L138.984 297.795L141.65 298.765Z" fill="white" stroke="black" stroke-width="0.3" stroke-linecap="round" stroke-linejoin="round"/>
<path d="M334.673 229.232L341.572 228.908L348.628 233.113L350.196 236.023L350.353 240.066L355.684 242.168L358.663 244.432L354.586 246.858L358.193 256.236L357.252 258.824L361.956 265.454L358.977 266.909L356.311 264.807L348.471 263.675L345.805 264.969L338.436 266.262L334.829 266.1L327.616 269.173H322.128L318.365 267.556L311.309 269.82L308.957 268.203L309.271 272.73L307.703 274.509L306.135 276.288L303.312 272.569L305.508 269.496L301.431 270.305L295.629 268.364L291.552 273.215L281.517 274.186L275.559 269.82L268.346 269.496L267.091 272.892L262.544 273.862L255.802 269.496L248.589 269.658L243.885 261.411L238.554 256.883L241.062 250.415L236.515 246.373L242.944 238.449L252.979 238.126L255.018 231.819L267.562 232.951L274.618 227.615L281.831 225.351L292.493 225.027L304.88 230.849L314.759 234.083L321.972 232.789L327.773 233.598L334.673 229.232ZM234.32 235.053L235.888 234.083L237.299 228.908L233.85 226.645L240.122 224.057L245.923 225.027L247.021 228.262L252.979 230.849L252.039 232.951L244.198 233.274L241.69 235.862L236.829 240.228L234.32 236.509V235.053ZM907.936 384.792L906.211 391.583L901.194 384.468L899.312 378.324L901.664 370.238L905.898 363.932L909.661 366.357L909.504 371.37L907.936 384.792Z" fill="white" stroke="black" stroke-width="0.3" stroke-linecap="round" stroke-linejoin="round"/>
<path d="M524.401 223.249L526.596 224.057L522.833 229.394L528.635 232.466L532.712 230.364L541.806 234.73L535.22 240.713L530.046 239.904L527.38 240.066L525.812 237.802L526.126 233.921L517.972 235.862L517.345 241.198L515.463 245.726L509.975 245.402L509.191 248.96L514.523 250.9L517.502 257.045L515.934 265.454L510.603 263.675H506.839L505.899 258.662L496.177 255.105L488.337 251.062L483.006 247.181L474.068 241.521L468.737 232.951L466.071 231.334L459.172 231.657L456.35 230.04L453.998 223.572L444.119 219.206L439.885 224.057L435.181 226.968L437.377 231.172L430.007 231.334L422.167 201.095L437.22 196.244L438.631 196.891L450.234 202.712L456.193 205.785L464.503 213.223L471.716 212.091L482.535 211.444L492.1 217.427L493.982 225.674L497.275 225.836L500.411 232.628L508.878 232.951L511.7 236.832H514.209L515.307 230.849L522.049 225.189L524.401 223.249ZM818.246 395.141L810.092 402.094L805.388 410.018L804.604 415.839L811.19 424.571L819.343 435.405L826.556 440.58L831.731 447.21L836.748 462.572L837.219 477.125L831.887 482.623L824.204 488.121L818.873 494.913L810.563 502.675L807.74 497.338L809.308 491.679L803.82 486.989L809.622 483.593L816.991 482.947L813.542 478.095L824.831 471.627L824.675 461.602L822.479 456.104L822.793 447.857L820.284 442.035L814.169 436.214L808.681 428.937L801.468 419.073L792.374 414.06L793.942 411.15L798.018 408.886L794.255 401.609H785.788L781.398 394.171L776.38 387.541L779.83 385.439L785.318 385.6L791.903 384.63L797.078 380.264L800.998 383.336L807.583 384.954L807.27 389.805L811.19 393.2L818.246 395.141Z" fill="white" stroke="black" stroke-width="0.3" stroke-linecap="round" stroke-linejoin="round"/>
<path d="M204.057 223.249L202.489 223.572L198.883 224.866L198.726 226.483L197.785 226.321L197.001 223.411L195.433 222.44L193.865 220.176L194.806 218.398L196.374 217.913L197.001 215.164L198.099 214.678L199.04 215.81L200.294 216.296L201.235 217.589L202.332 217.913L203.744 219.53L204.684 219.368L204.214 221.47L203.43 222.44L204.057 223.249Z" fill="white" stroke="black" stroke-width="0.3" stroke-linecap="round" stroke-linejoin="round"/>
<path d="M101.823 153.877L98.3733 151.937L94.4533 148.38L88.8084 149.997L84.2612 149.35L87.3972 147.086L92.4149 135.443L100.568 132.047L105.586 132.371L106.684 135.12L105.586 142.396L104.018 145.307H100.412L101.823 153.877ZM14.3281 265.939L11.5057 268.041L8.05604 266.909L4.60642 267.879L5.70402 261.411L5.39042 256.398L2.41121 255.59L1 252.517L1.6272 247.019L4.44962 244.109L5.07682 240.713L6.64483 235.862V232.304L5.54722 229.394L5.23362 226.483L7.58563 224.381L10.408 223.249L11.9761 227.291H15.7393L16.8369 226.321L20.7569 226.645L22.3249 230.849L19.3457 233.113L19.0321 239.581L18.0913 240.713L17.7777 244.756L14.9553 245.402L17.4641 250.254L15.4257 255.751L17.6209 258.177L16.6801 260.441L14.1713 263.513L14.3281 265.939Z" fill="white" stroke="black" stroke-width="0.3" stroke-linecap="round" stroke-linejoin="round"/>
<path d="M51.6465 213.708L54.1553 216.781L66.0721 220.5L68.4241 218.721L75.637 222.44L83.0066 221.47L83.477 226.321L77.3618 231.819L69.0513 233.598L68.4241 236.347L64.3473 240.875L61.8385 247.666L64.3473 252.517L60.5841 256.075L59.0161 261.573L53.9985 263.19L49.2944 269.496L40.6704 269.658L34.3984 269.496L30.1647 272.407L27.4991 275.479L24.2063 274.833L21.8543 271.922L20.1295 267.233L14.0143 265.939L13.5439 263.028L16.0527 259.956L16.9935 257.692L14.7983 255.266L16.8367 249.768L14.3279 244.917L17.1503 244.27L17.4639 240.228L18.4047 239.096L18.7183 232.628L21.6975 230.364L20.1295 226.16L16.2095 225.836L15.1119 226.806H11.3487L9.78064 222.764L6.95823 223.896L4.60622 225.998L5.23342 220.176L2.72461 216.619L11.9759 210.636L19.8159 212.091H28.4399L35.1824 213.547L40.5136 213.061L51.6465 213.708ZM125.97 224.057L124.088 230.364L121.109 228.747L119.541 223.249L120.639 220.176L124.716 217.104L125.97 224.057Z" fill="white" stroke="black" stroke-width="0.3" stroke-linecap="round" stroke-linejoin="round"/>
<path d="M99.1568 164.065L100.568 164.712L102.293 164.55L105.272 166.652L114.366 168.269L111.387 173.767L110.917 179.588L109.349 181.044L106.526 180.235L106.84 182.337L102.293 186.865V190.584L105.272 189.291L107.467 192.848L107.31 195.112L109.192 198.184L106.997 200.61L108.878 206.917L112.328 207.887L111.701 211.444L106.056 216.134L93.1984 213.87L83.9471 216.619L83.1631 221.47L75.7935 222.44L68.5806 218.721L66.2286 220.5L54.3118 216.781L51.8029 213.708L55.2526 208.857L56.507 192.525L50.0781 183.954L45.3741 179.75L35.8093 176.678L35.3389 170.695L43.4925 169.078L53.9982 171.18L52.1166 161.963L58.075 165.52L72.3439 159.375L74.2255 152.745L79.5567 151.128L80.4975 154.039L83.3199 154.201L86.2991 157.435L90.6895 161.154L93.8256 160.507L99.1568 164.065Z" fill="white" stroke="black" stroke-width="0.3" stroke-linecap="round" stroke-linejoin="round"/>
<path d="M278.694 150.643L281.517 154.201L281.673 155.818L290.141 158.729L294.688 157.435L299.235 161.154L302.841 160.993L312.563 163.58L313.033 166.005L311.465 170.21L313.661 174.737L313.347 177.486L307.389 177.972L304.566 180.235L305.037 183.793L300.176 184.44L296.413 187.189L290.611 187.512L285.593 190.584L286.848 195.597L290.297 197.538L296.726 197.053L295.942 199.963L289.2 201.419L281.36 206.108L277.44 204.491L278.381 200.772L271.011 198.346L271.952 196.729L277.753 193.98L275.558 192.202L265.366 190.099L264.425 187.027L258.78 187.997L257.212 192.525L253.136 198.508L250.156 197.053L247.334 198.508L244.355 196.891L245.923 195.921L246.707 193.172L248.118 190.423L247.334 188.967L248.588 188.321L249.372 189.453L253.136 189.776L254.704 189.129L253.449 188.321L253.763 187.027L251.254 184.925L249.843 181.529L247.334 180.235L247.491 177.486L244.198 175.223L241.689 174.899L236.672 172.474L232.595 173.282L231.183 174.414H228.518L227.263 176.354L222.716 177.163L220.678 178.457L217.542 176.354H213.465L209.388 175.384L206.879 177.163L205.782 175.223L202.019 172.959L202.959 169.725L204.527 167.461L205.939 167.946L203.9 164.388L208.604 157.597L211.427 156.627L211.74 154.363L207.663 147.409L210.486 147.086L213.465 144.984L218.169 144.66L224.284 145.307L231.497 147.248L236.358 147.409L238.71 148.541L240.905 147.086L242.787 149.026L248.118 148.703L250.784 149.512L250.47 145.469L252.038 143.69L257.212 143.367L259.408 143.69L260.662 141.911L262.544 142.235L268.659 141.426L273.363 145.954L272.265 147.571L273.206 149.997L278.694 150.643Z" fill="white" stroke="#39ABE2" stroke-width="0.5" stroke-linecap="round" stroke-linejoin="round"/>
<circle cx="336.578" cy="221.806" r="3.18432" fill="#39ABE2"/>
<circle cx="353.296" cy="231.359" r="3.18432" fill="#39ABE2"/>
<circle cx="374.79" cy="239.32" r="3.18432" fill="#39ABE2"/>
<circle cx="445.195" cy="247.281" r="3.18432" fill="#39ABE2"/>
<circle cx="436.438" cy="205.885" r="3.18432" fill="#39ABE2"/>
<circle cx="480.222" cy="180.41" r="3.18432" fill="#39ABE2"/>
<circle cx="514.802" cy="186.779" r="3.18432" fill="#39ABE2"/>
<circle cx="540.277" cy="225.787" r="3.18432" fill="#39ABE2"/>
<circle cx="289.26" cy="246.485" r="3.18432" fill="#39ABE2"/>
<circle cx="295.978" cy="302.21" r="3.18432" fill="#39ABE2"/>
<circle cx="220.002" cy="180.41" r="3.18432" fill="#39ABE2"/>
<circle cx="206.468" cy="178.818" r="3.18432" fill="#39ABE2"/>
<circle cx="150.393" cy="228.175" r="3.18432" fill="#39ABE2"/>
<circle cx="79.1931" cy="225.787" r="3.18432" fill="#39ABE2"/>
<circle cx="37.7966" cy="244.893" r="3.18432" fill="#39ABE2"/>
<circle cx="5.95386" cy="248.077" r="3.18432" fill="#39ABE2"/>
<circle cx="15.5066" cy="127.869" r="3.18432" fill="#39ABE2"/>
<circle cx="54.5144" cy="119.908" r="3.18432" fill="#39ABE2"/>
<circle cx="85.115" cy="149.363" r="3.18432" fill="#39ABE2"/>
<circle cx="128.103" cy="138.218" r="3.18432" fill="#39ABE2"/>
<circle cx="195.323" cy="146.975" r="3.18432" fill="#39ABE2"/>
<circle cx="192.138" cy="156.528" r="3.18432" fill="#39ABE2"/>
<circle cx="185.421" cy="215.438" r="3.18432" fill="#39ABE2"/>
<circle cx="183.829" cy="202.7" r="3.18432" fill="#39ABE2"/>
<circle cx="163.131" cy="201.108" r="3.18432" fill="#39ABE2"/>
<circle cx="163.131" cy="193.147" r="3.18432" fill="#39ABE2"/>
<circle cx="151.985" cy="183.594" r="3.18432" fill="#39ABE2"/>
<circle cx="203.284" cy="119.908" r="3.18432" fill="#39ABE2"/>
<circle cx="212.837" cy="104.782" r="3.18432" fill="#39ABE2"/>
<circle cx="211.245" cy="80.8999" r="3.18432" fill="#39ABE2"/>
</svg>
